<?xml version="1.0" encoding="UTF-8"?>
<svg id="Layer_1" xmlns="http://www.w3.org/2000/svg" version="1.1" viewBox="0 0 582.41 116.61">
  <!-- Generator: Adobe Illustrator 29.8.3, SVG Export Plug-In . SVG Version: 2.1.1 Build 3)  -->
  <defs>
    <style>
      .st0 {
        fill: #ece4d7;
      }
    </style>
  </defs>
  <path class="st0" d="M68.68,31.04h-26.34s-9.16,0-9.16,0c-2.33,0-4.22,1.89-4.22,4.22v43.39c0,2.33,1.89,4.22,4.22,4.22h9.16s26.34,0,26.34,0c10.18,0,18.44-8.26,18.44-18.44v-14.96c0-10.18-8.26-18.44-18.44-18.44M66.85,63.77c0,4.97-4.03,9-9,9h-5.28c-1.84,0-3.34-1.49-3.34-3.34v-24.96c0-1.84,1.49-3.34,3.34-3.34h5.28c4.97,0,9,4.03,9,9v13.63Z"/>
  <path class="st0" d="M223.74,72.77h-16.77c-1.84,0-3.34-1.49-3.34-3.34v-35.07c0-1.84-1.49-3.33-3.34-3.33h-13.6c-1.84,0-3.34,1.49-3.34,3.33v40.46c0,4.44,3.6,8.05,8.05,8.05h32.32c1.55,0,2.81-1.26,2.81-2.82v-4.48c0-1.55-1.26-2.82-2.81-2.82"/>
  <path class="st0" d="M131.98,31.04h-19.7c-10.62,0-19.23,8.61-19.23,19.23v29.28c0,1.84,1.49,3.34,3.34,3.34h13.6c1.84,0,3.34-1.49,3.34-3.34v-4.59c0-1.84,1.49-3.34,3.34-3.34h10.94c1.84,0,3.34,1.49,3.34,3.34v4.59c0,1.84,1.49,3.34,3.34,3.34h13.6c1.84,0,3.34-1.49,3.34-3.34v-29.28c0-10.62-8.61-19.23-19.22-19.23M130.94,58.17c0,1.84-1.49,3.34-3.34,3.34h-10.94c-1.84,0-3.34-1.49-3.34-3.34v-10.06c0-3.85,3.12-6.97,6.97-6.97h3.67c3.85,0,6.97,3.12,6.97,6.97v10.06Z"/>
  <path class="st0" d="M174.09,31.04h-13.6c-1.84,0-3.34,1.49-3.34,3.34v45.17c0,1.84,1.49,3.34,3.34,3.34h13.6c1.84,0,3.34-1.49,3.34-3.34v-45.17c0-1.84-1.49-3.34-3.34-3.34"/>
  <path class="st0" d="M268.73,31.04h-13.76c-1.8,0-3.25,1.46-3.25,3.25v11.06c0,3.84-.4,12.6-6.96,12.61h-3.67c-6.57,0-6.97-8.76-6.97-12.61v-11.06c0-1.8-1.46-3.25-3.25-3.25h-13.76c-1.8,0-3.25,1.46-3.25,3.25v10.86c0,10.52,8.94,18.72,15.92,21.7,1.85.79,3.01,2.64,3.01,4.64v8.14c0,1.8,1.46,3.25,3.25,3.25h13.76c1.8,0,3.25-1.46,3.25-3.25v-7.94c0-2.01,1.17-3.85,3.01-4.64,6.98-2.98,15.92-11.18,15.92-21.7v-11.06c0-1.8-1.46-3.25-3.25-3.25"/>
  <path class="st0" d="M322.83,82.86h18.02v-23.49h-18.89v1.39h11.05v20.7h-10.18c-8.2,0-18.68-1.94-18.68-23.91s10.47-24.76,18.68-24.76c10.4,0,15.53,9.38,15.53,9.38l3.15-3.44s-6.59-7.33-18.68-7.33c-16.85,0-27.54,10.69-27.54,26.15s10.69,25.3,27.54,25.3"/>
  <path class="st0" d="M360.57,59.37v-26.59h11.96c7.35,0,13.26,5.98,13.26,13.33s-5.91,13.26-13.26,13.26h-11.96ZM395.02,82.86c0-4.97-2.38-18.09-14.34-22.26,7.2-.87,12.9-6.99,12.9-14.48,0-8.14-6.56-14.7-14.7-14.7h-26.01v51.45h7.71v-22.12h11.96c7.93,0,14.77,13.47,14.77,22.12h7.71Z"/>
  <path class="st0" d="M432.41,31.41c8.2,0,18.68,3.84,18.68,25.81s-10.48,25.64-18.68,25.64-18.68-3.67-18.68-25.64,10.48-25.81,18.68-25.81M432.41,84.25c7.62,0,14.5-3.08,19.48-8.06,4.98-4.98,8.06-11.36,8.06-18.97,0-15.16-12.38-27.2-27.54-27.2-7.62,0-14.5,3.08-19.48,8.06-4.98,4.98-8.06,11.53-8.06,19.14,0,15.24,12.31,27.03,27.54,27.03"/>
  <path class="st0" d="M491.7,84.25c14.72,0,17.94-10.91,17.94-16.85V31.41h-1.76v36.8c0,8.57-6.67,14.65-14.28,14.65-5.86,0-15.53-3-15.53-16.11V31.41h-7.84v33.94c0,15.02,12.6,18.9,21.46,18.9"/>
  <path class="st0" d="M529.19,32.71h11.3c7.41,0,13.5,5.64,13.5,13.13s-6.09,13.5-13.5,13.5h-11.3v-26.63ZM529.19,60.74h17.76c8.22,0,14.9-6.68,14.9-14.9s-6.68-14.52-14.9-14.52h-25.61v51.54h7.85v-22.12Z"/>
</svg>