<?xml version="1.0" encoding="UTF-8"?>
<svg id="Layer_1" xmlns="http://www.w3.org/2000/svg" version="1.1" viewBox="0 0 512 512">
  <!-- Generator: Adobe Illustrator 29.8.3, SVG Export Plug-In . SVG Version: 2.1.1 Build 3)  -->
  <defs>
    <style>
      .st0 {
        fill: #033537;
        fill-rule: evenodd;
      }
    </style>
  </defs>
  <path class="st0" d="M328.3,302.8v-28.4h44l-6.2,28.4h-37.8ZM229.2,165.8v28.4h-61.5l-6.3-28.4h67.8ZM390.8,169.9c2.2,2.6,3,6,2.2,9.3l-3.3,15h-61.5v-28.4h54c3.4,0,6.5,1.4,8.6,4.1h0ZM328.3,217h56.5l-7.6,34.6h-48.9v-34.6ZM252,194.2v-28.4h53.5v28.4h-53.5ZM252,251.6v-34.6h53.5v34.6h-53.5ZM252,274.3h53.5v28.4h-53.5v-28.4ZM185.4,274.3h43.8v28.4h-37.5l-6.3-28.4ZM172.8,217h56.5v34.6h-48.8l-7.7-34.6ZM222.8,412.9c-9.3,0-16.8-7.5-16.8-16.8s7.5-16.8,16.8-16.8,16.8,7.5,16.8,16.8-7.5,16.8-16.8,16.8ZM361.6,412.9c-9.3,0-16.8-7.5-16.9-16.8,0-9.3,7.5-16.8,16.8-16.9,9.3,0,16.8,7.5,16.9,16.8h0c0,9.3-7.5,16.8-16.8,16.9h0ZM386.9,313.7l28.3-129.7c4-18.2-7.6-36.2-25.8-40.2-2.4-.5-4.8-.8-7.2-.8h-225.8l-8.9-40.3c-3.3-15.5-17.1-26.6-33-26.5h-51.2c-6.3,0-11.4,5.1-11.4,11.4s5.1,11.4,11.4,11.4h51.2c5.2,0,9.7,3.5,10.7,8.6l45.6,206.4c4.3,20.1,17.9,37,36.7,45.5-20.2,8.4-29.7,31.6-21.3,51.8,8.4,20.2,31.6,29.7,51.8,21.3,20.2-8.4,29.7-31.6,21.3-51.8-2.5-6-6.5-11.3-11.5-15.5h88.8c-16.9,13.8-19.5,38.8-5.6,55.7,13.8,16.9,38.8,19.5,55.7,5.6,16.9-13.8,19.5-38.8,5.6-55.7-1.7-2.1-3.6-4-5.6-5.6h4.1c6.3,0,11.4-5.1,11.4-11.4s-5.1-11.4-11.4-11.4h-155.9c-13.5,0-26.3-6.3-34.3-17.2h171.7c7.1,0,13.2-4.9,14.6-11.8h0v.2Z"/>
</svg>