<?xml version="1.0" encoding="UTF-8"?>
<svg id="Capa_1" xmlns="http://www.w3.org/2000/svg" version="1.1" viewBox="0 0 425 425">
  <!-- Generator: Adobe Illustrator 29.8.3, SVG Export Plug-In . SVG Version: 2.1.1 Build 3)  -->
  <defs>
    <style>
      .st0 {
        fill: #033537;
      }
    </style>
  </defs>
  <path class="st0" d="M235,266.8c-1.2-1.4-2.8-2.4-4.4-3.2-3.5-1.8-7.4-2.9-11.2-3.9v29.6c6.2-.7,13.3-2.9,16.6-8.7h0c1.6-2.8,1.9-6.2,1.2-9.2-.3-1.7-1.1-3.2-2.2-4.5v-.1Z"/>
  <path class="st0" d="M235.9,280.5h0Z"/>
  <path class="st0" d="M190.3,219.5c-1.1,1.6-1.7,3.3-1.9,5.2s0,4,.6,5.7c.7,1.7,2.1,2.9,3.6,3.9,1.7,1.1,3.5,2,5.3,2.7,1.6.6,3.3,1.2,5.2,1.8v-26.8c-4.8,1-9.9,3.2-12.8,7.3v.2Z"/>
  <path class="st0" d="M236.1,280.3s0,.1-.1.2h0s0-.2.1-.2Z"/>
  <path class="st0" d="M236.2,280h0Z"/>
  <path class="st0" d="M229.8,119.1c25.1-21.1,41.9-68.7,31.6-70.8-13.7-2.8-43.6,9.4-58,11.5-20.5,2.5-42.7-22.2-55.2-8.4-10.2,11.2,7.3,51.8,34.6,69.5-81.5,40-196,241,3.8,255.6,276.4,20.2,138-218.4,43.2-257.4h0ZM253.5,277.7c-.9,7.8-5,14.9-11.2,19.7-6.6,5.1-14.8,7.4-22.9,8.1v8.7c0,2.3-1,4.6-2.7,6.1-2.4,2.1-5.9,2.6-8.8,1.3-2.9-1.3-4.7-4.2-4.7-7.4v-9.5c-1.4-.3-2.8-.6-4.2-1-7.6-2.1-14.7-6.2-19.9-12.2-2.6-3-4.7-6.4-6.1-10.1-.4-1-.7-1.9-1-2.9-.3-.9-.5-1.8-.6-2.8-.2-1.6.2-3.2.9-4.6,1.5-2.9,4.7-4.6,7.9-4.3,3.2.3,6,2.5,7,5.5.3.9.5,1.9.9,2.8.3.9.8,1.8,1.2,2.7,1,1.7,2.2,3.2,3.6,4.6,2.9,2.8,6.5,4.6,10.3,5.6v-32.2c-7.5-1.9-15.2-4.4-21.3-9.2-3-2.3-5.5-5.2-7.2-8.6-1.8-3.6-2.5-7.6-2.5-11.6s.7-8.1,2.4-11.8c1.6-3.5,3.9-6.6,6.7-9.2,6-5.5,13.9-8.6,21.9-9.7v-9c0-2.3,1-4.6,2.7-6.1,2.4-2.1,5.9-2.6,8.8-1.3,2.9,1.3,4.7,4.2,4.7,7.4v8.9c1.1.1,2.1.3,3.2.5,7.8,1.4,15.5,4.7,21.2,10.3,2.7,2.7,4.9,5.9,6.5,9.3.4,1,.8,2,1.1,3,.3.9.6,1.9.8,2.9.2,1.6,0,3.2-.7,4.6-1.4,2.9-4.5,4.8-7.7,4.7s-6.1-2.2-7.2-5.2c-.3-.9-.5-1.8-.9-2.7s-.8-1.8-1.3-2.6c-1-1.6-2.3-2.9-3.8-4-3.3-2.4-7.2-3.7-11.2-4.4v30.8c4.7,1.1,9.4,2.3,13.9,4.1,6.8,2.7,13.2,6.8,16.9,13.3-.6-1-1.1-2,0,0s.6,1,0,0c3,5.2,3.9,11.4,3.3,17.3v.2Z"/>
  <path class="st0" d="M235.8,280.7s0,.2-.1.2c0,0,0-.1.1-.2Z"/>
</svg>