<?xml version="1.0" encoding="UTF-8"?>
<svg id="Layer_1" xmlns="http://www.w3.org/2000/svg" version="1.1" viewBox="0 0 512 512">
  <!-- Generator: Adobe Illustrator 29.8.3, SVG Export Plug-In . SVG Version: 2.1.1 Build 3)  -->
  <defs>
    <style>
      .st0 {
        fill: #033537;
        fill-rule: evenodd;
      }
    </style>
  </defs>
  <path class="st0" d="M165,160.9c33.3,0,60.3,27,60.3,60.3s-27,60.3-60.3,60.3c61.5,0,112.2,46.6,118.5,106.4H46.4c6.4-59.8,57-106.4,118.5-106.4-33.3,0-60.3-27-60.3-60.3s27-60.3,60.3-60.3h.1ZM347,124.2c-33.3,0-60.3,27-60.3,60.3s26.9,60.3,60.3,60.3c-38.2,0-72.1,18-93.9,45.8,19.6,15.7,35,36.5,43.9,60.6h168.6c-6.4-59.8-57-106.4-118.5-106.4,33.3,0,60.3-27,60.3-60.3s-27-60.3-60.3-60.3h-.1Z"/>
</svg>