<?xml version="1.0" encoding="UTF-8"?>
<svg id="Layer_1" xmlns="http://www.w3.org/2000/svg" version="1.1" viewBox="0 0 64 64">
  <!-- Generator: Adobe Illustrator 29.8.3, SVG Export Plug-In . SVG Version: 2.1.1 Build 3)  -->
  <defs>
    <style>
      .st0 {
        fill: #033537;
      }
    </style>
  </defs>
  <path class="st0" d="M28.5,44.8h7v2.4h-7v-2.4Z"/>
  <path class="st0" d="M54.5,14.5c0-1.4-1.2-2.7-2.7-2.7H12.1c-1.4,0-2.7,1.2-2.7,2.7v21.5h45.1V14.5ZM24.9,15h8.5c.5,0,.8.3.8.8s-.3.8-.8.8h-8.5c-.5,0-.8-.3-.8-.8s.3-.8.8-.8h0ZM13,15h8.3c.5,0,.8.3.8.8s-.3.8-.8.8h-8.3c-.5,0-.8-.3-.8-.8s.3-.8.8-.8h0ZM13,24.3h6.9c.5,0,.8.3.8.8s-.3.8-.8.8h-6.9c-.5,0-.8-.3-.8-.8s.3-.8.8-.8h0ZM22.7,33.3h-9.7c-.5,0-.8-.3-.8-.8s.3-.8.8-.8h9.7c.5,0,.8.3.8.8s-.3.8-.8.8h0ZM33.8,29.5H13c-.5,0-.8-.3-.8-.8s.3-.8.8-.8h20.8c.5,0,.8.3.8.8s-.3.8-.8.8ZM46.1,21.3H13.5c-.5,0-.8-.3-.8-.8s.3-.8.8-.8h32.6c.5,0,.8.3.8.8s-.3.8-.8.8Z"/>
  <path class="st0" d="M26.4,48.9c-1.9,0-3.6,1.4-4,3.3h19.1c-.4-1.9-2.1-3.3-4-3.3h-11.1Z"/>
  <path class="st0" d="M54.5,40.6v-3H9.5v3c0,1.4,1.2,2.7,2.7,2.7h39.7c1.4,0,2.7-1.2,2.7-2.7h-.1Z"/>
</svg>