<?xml version="1.0" encoding="UTF-8"?>
<svg id="Layer_1" xmlns="http://www.w3.org/2000/svg" version="1.1" viewBox="0 0 52 52">
  <!-- Generator: Adobe Illustrator 29.8.3, SVG Export Plug-In . SVG Version: 2.1.1 Build 3)  -->
  <defs>
    <style>
      .st0 {
        fill: #033537;
      }
    </style>
  </defs>
  <path class="st0" d="M29.9,28c0,2.6-2.1,4.7-4.7,4.7s-4.7-2.1-4.7-4.7,2.1-4.7,4.7-4.7.5,0,.8,0l-1.8,1.8c-1,1-1.1,2.7,0,3.8,1.1,1.1,2.8,1.1,3.8,0l1.8-1.8v.8h.1v.1Z"/>
  <path class="st0" d="M34.5,22.6l-3.2,3.2c.3.7.4,1.5.4,2.3,0,3.6-2.9,6.5-6.5,6.5s-6.5-2.9-6.5-6.5,2.9-6.5,6.5-6.5,1.6.1,2.3.4l3.2-3.2c-1.6-1-3.5-1.5-5.5-1.5-6,0-10.8,4.9-10.8,10.8s4.9,10.8,10.8,10.8,10.8-4.9,10.8-10.8-.5-3.8-1.5-5.5Z"/>
  <g>
    <path class="st0" d="M40.5,19l-2-.5-2.8,2.7c1.2,2,2,4.3,2,6.8,0,7-5.7,12.6-12.6,12.6s-12.6-5.7-12.6-12.6,5.7-12.6,12.6-12.6,4.9.7,6.8,2l2.8-2.8-.5-2c-2.7-1.6-5.8-2.5-9.1-2.5-9.8,0-17.8,8-17.8,17.8s8,17.8,17.8,17.8,17.8-7.8,17.8-17.8-.9-6.4-2.5-9h0l.1.1Z"/>
    <path class="st0" d="M46.7,12.3c.2-.2,0-.5-.2-.6l-2.9-.8,1.3-1.3c.4-.4.4-.9,0-1.3s-.9-.4-1.3,0l-1.3,1.3-.8-2.9c0-.3-.4-.4-.6-.2l-5.1,5.1.9,3.4-11.4,11.3c-.4.4-.4.9,0,1.3s.9.4,1.3,0l11.3-11.3,3.5.9,5.1-5.1s.2.2.2.2Z"/>
  </g>
</svg>