<?xml version="1.0" encoding="UTF-8"?>
<svg id="Capa_1" xmlns="http://www.w3.org/2000/svg" version="1.1" viewBox="0 0 512 512">
  <!-- Generator: Adobe Illustrator 29.8.3, SVG Export Plug-In . SVG Version: 2.1.1 Build 3)  -->
  <defs>
    <style>
      .st0 {
        fill: #033537;
      }
    </style>
  </defs>
  <path class="st0" d="M439,293.9v-75.9l-41.2-10.3c-2.1-6.1-4.6-12.1-7.4-17.9l21.9-36.4-53.7-53.7-36.4,21.9c-5.8-2.9-11.8-5.3-17.9-7.4l-10.3-41.2h-75.9l-10.3,41.2c-6.1,2.1-12.1,4.6-17.9,7.4l-36.4-21.9-53.7,53.7,21.9,36.4c-2.9,5.8-5.3,11.8-7.4,17.9l-41.2,10.3v75.9l41.2,10.3c2.1,6.1,4.6,12.1,7.4,17.9l-21.9,36.4,53.7,53.7,36.4-21.9c5.8,2.9,11.8,5.3,17.9,7.4l10.3,41.2h75.9l10.3-41.2c6.1-2.1,12.1-4.6,17.9-7.4l36.4,21.9,53.7-53.7-21.9-36.4c2.9-5.8,5.3-11.8,7.4-17.9l41.2-10.3ZM256,322.6c-36.7,0-66.6-29.9-66.6-66.6s29.9-66.6,66.6-66.6,66.6,29.9,66.6,66.6-29.9,66.6-66.6,66.6h0Z"/>
</svg>