<?xml version="1.0" encoding="UTF-8"?>
<svg id="Layer_1" xmlns="http://www.w3.org/2000/svg" version="1.1" viewBox="0 0 402 299.12">
  <!-- Generator: Adobe Illustrator 29.8.3, SVG Export Plug-In . SVG Version: 2.1.1 Build 3)  -->
  <defs>
    <style>
      .st0 {
        fill: #01676c;
        fill-rule: evenodd;
      }
    </style>
  </defs>
  <path class="st0" d="M354.31,284.26c-70.61,24.55-151.11,19.45-220.77-20.88C65.16,224,21.01,158.81,6.02,87.24-6.25,28.74-1.15,24.28,34.24,16.31,55.28,11.53,75.52,6.27,96.4.69c10.68-2.87,21.84,3.51,24.71,14.19l18.01,67.11c2.87,10.68-3.51,22.16-14.19,24.71-16.1,3.83-45.91,2.71-24.71,35.07,16.58,25.34,39.05,47.18,67.11,63.28,27.89,16.1,58.18,24.71,88.31,26.46,38.73,2.23,22-25.82,18.17-38.89-3.19-10.68,3.51-21.84,14.19-24.71l67.11-18.01c10.68-2.87,21.84,3.51,24.71,14.19l7.33,27.42,8.93,33.15c11.95,44.47,9.4,41.76-41.44,59.46"/>
</svg>