<?xml version="1.0" encoding="UTF-8"?>
<svg id="Layer_1" xmlns="http://www.w3.org/2000/svg" version="1.1" viewBox="0 0 512 512">
  <!-- Generator: Adobe Illustrator 29.8.3, SVG Export Plug-In . SVG Version: 2.1.1 Build 3)  -->
  <defs>
    <style>
      .st0 {
        fill: #033537;
        fill-rule: evenodd;
      }
    </style>
  </defs>
  <path class="st0" d="M72.6,184.6h80.3l24.5-93.1h-55.7c-.4,0-.6,0-.8.5l-48.3,92.7h0v-.1Z"/>
  <polygon class="st0" points="167.6 184.6 192.1 91.6 248.8 91.6 248.8 184.6 167.6 184.6"/>
  <polygon class="st0" points="263 184.6 344.2 184.6 319.7 91.6 263 91.6 263 184.6"/>
  <path class="st0" d="M390.1,91.6c.7,0,.8.5,1.1,1l48,92.1h-80.3l-24.5-93.1h55.8-.1Z"/>
  <path class="st0" d="M443.2,198.9c-3.5,19.9-20.8,34.4-41,34.4s-37.6-14.6-41-34.4h82.1-.1Z"/>
  <path class="st0" d="M345.7,198.9c-3.5,19.9-20.8,34.4-41,34.4s-37.6-14.6-41-34.4h82.1-.1Z"/>
  <path class="st0" d="M248.1,198.9c-3.5,19.9-20.8,34.4-41,34.4s-37.6-14.6-41-34.4h82.1-.1Z"/>
  <path class="st0" d="M150.6,198.9c-3.5,19.9-20.8,34.4-41,34.4s-37.6-14.6-41-34.4h82.1-.1Z"/>
  <path class="st0" d="M411.9,266.8v-19.9c-3.2.6-6.4.9-9.6.9-20.3,0-38.9-11-48.8-28.6-9.9,17.6-28.5,28.6-48.8,28.6s-38.9-11-48.8-28.6c-9.9,17.6-28.5,28.6-48.8,28.6s-38.9-11-48.8-28.6c-9.9,17.6-28.5,28.6-48.8,28.6s-6.5-.3-9.6-.9h0v173.7h42.9v-136.4c0-4.2,3.5-7.7,7.7-7.7h70.4c4.2,0,7.7,3.5,7.7,7.7v136.4h183.2v-153.8h.1ZM373.1,312.9l-7.6,31.7c-1.6,6.7-7.5,11.4-14.3,11.4h-46.1c-.8,0-1.4.7-1.4,1.4s.7,1.4,1.4,1.4h56.7c2.9,0,5.2,2.3,5.2,5.2s-2.3,5.2-5.2,5.2h-2.7c1.4,1.3,2.3,3.4,2.3,5.5,0,4.2-3.4,7.6-7.6,7.6s-7.6-3.4-7.6-7.6.9-4.1,2.3-5.5h-34.1c1.4,1.3,2.3,3.4,2.3,5.5,0,4.2-3.4,7.6-7.6,7.6s-7.6-3.4-7.6-7.6,1-4.1,2.4-5.6c-6-.6-10.7-5.7-10.7-11.7s2.6-8.6,6.5-10.6c-3.8-14.7-7.6-29.4-11.4-44.2h-10.3c-1.7,0-3.3-.9-4.2-2.1v-6.1c1-1.3,2.5-2.1,4.2-2.1h14.2c2.3,0,4.4,1.6,5,3.9l2.5,9.8h68.2c3.6,0,6.1,3.6,4.9,6.9h.3Z"/>
</svg>